<?xml version="1.0" encoding="UTF-8" standalone="no"?>
<!-- Created with Inkscape (http://www.inkscape.org/) -->

<svg
   xmlns:dc="http://purl.org/dc/elements/1.1/"
   xmlns:cc="http://creativecommons.org/ns#"
   xmlns:rdf="http://www.w3.org/1999/02/22-rdf-syntax-ns#"
   xmlns:svg="http://www.w3.org/2000/svg"
   xmlns="http://www.w3.org/2000/svg"
   xmlns:sodipodi="http://sodipodi.sourceforge.net/DTD/sodipodi-0.dtd"
   xmlns:inkscape="http://www.inkscape.org/namespaces/inkscape"
   width="110mm"
   height="110mm"
   viewBox="0 0 389.76378 389.76378"
   id="svg4338"
   version="1.1"
   inkscape:version="0.91 r13725"
   sodipodi:docname="icon.svg">
  <defs
     id="defs4340" />
  <sodipodi:namedview
     id="base"
     pagecolor="#ffffff"
     bordercolor="#666666"
     borderopacity="1.0"
     inkscape:pageopacity="0.0"
     inkscape:pageshadow="2"
     inkscape:zoom="1.63"
     inkscape:cx="-112.37184"
     inkscape:cy="407.9738"
     inkscape:document-units="px"
     inkscape:current-layer="layer1"
     showgrid="false"
     fit-margin-top="0"
     fit-margin-left="0"
     fit-margin-right="0"
     fit-margin-bottom="0"
     inkscape:window-width="3200"
     inkscape:window-height="1681"
     inkscape:window-x="0"
     inkscape:window-y="0"
     inkscape:window-maximized="1" />
  <metadata
     id="metadata4343">
    <rdf:RDF>
      <cc:Work
         rdf:about="">
        <dc:format>image/svg+xml</dc:format>
        <dc:type
           rdf:resource="http://purl.org/dc/dcmitype/StillImage" />
        <dc:title></dc:title>
      </cc:Work>
    </rdf:RDF>
  </metadata>
  <g
     inkscape:label="Layer 1"
     inkscape:groupmode="layer"
     id="layer1"
     transform="translate(-295.259,-662.72174)">
    <g
       transform="translate(0,52.362207)"
       id="g3337">
      <g
         id="g3339">
        <g
           id="g3341">
          <path
             style="fill:#ead5d3"
             inkscape:connector-curvature="0"
             d="m 376.931,877.631 c 0,0 2.603,40.92 0,52.007 -1.953,8.312 29.758,2.368 31.482,1.952 2.719,-0.659 -8.277,-44.837 -3.85,-50.699"
             id="path3343" />
          <ellipse
             style="fill:#ead5d3"
             cx="331.263"
             cy="828.815"
             rx="5.3460002"
             ry="10.836"
             id="ellipse3345" />
          <ellipse
             style="fill:#ead5d3"
             cx="446.02399"
             cy="831.12598"
             rx="5.3470001"
             ry="10.838"
             id="ellipse3347" />
          <path
             style="fill:#ead5d3"
             inkscape:connector-curvature="0"
             d="m 335.585,801.692 c 0,0 -6.004,67.426 2.001,75.76 8.006,8.333 90.096,15.203 99.206,4.866 9.11,-10.339 7.475,-78.603 6.453,-87.561 -1.019,-8.958 -99.082,-29.186 -107.66,6.935 z"
             id="path3349" />
          <path
             style="fill:#554e43"
             inkscape:connector-curvature="0"
             d="m 445.299,849.447 c 0.139,-5.52 0.726,-26.081 0.726,-26.081 0,0 -4.876,-8.67 -3.569,0 1.216,8.072 -0.679,29.171 -0.946,32.036 -0.344,2.567 -0.747,4.544 -1.2,5.113 0,0 -3.873,14.195 -12.726,15.2 -6.522,0.741 -8.105,-0.057 -9.961,-1.108 -4.54,-4.186 -15.417,-7.167 -28.229,-7.329 l 0,-0.014 c -0.018,0 -0.03,0 -0.049,0 -0.175,0 -0.348,0.006 -0.523,0.006 -0.175,0 -0.349,-0.006 -0.523,-0.006 -0.016,0 -0.031,0 -0.047,0 l 0,0.014 c -12.813,0.162 -23.688,3.144 -28.231,7.329 -1.855,1.052 -3.439,1.85 -9.96,1.108 -8.853,-1.005 -12.377,-14.494 -12.377,-14.494 -0.455,-0.566 -0.703,-3.214 -1.049,-5.779 -0.268,-2.863 -1.355,-32.673 -0.14,-40.746 1.307,-8.668 -5.229,-1.132 -5.229,-1.132 0,0 0.939,30.363 1.077,35.883 -0.14,1.817 2.231,22.055 3.815,26.802 1.66,4.987 18.717,20.248 28.288,23.744 8.387,3.064 16.874,3.963 24.375,3.854 7.5,0.108 15.989,-0.79 24.375,-3.854 9.571,-3.496 27.372,-18.757 29.03,-23.744 1.581,-4.747 3.213,-24.984 3.073,-26.802 z"
             id="path3351" />
          <path
             style="fill:none;stroke:#000000;stroke-width:0.76969999;stroke-miterlimit:10"
             inkscape:connector-curvature="0"
             stroke-miterlimit="10"
             d="m 383.859,806.271 c 0,0 5.399,11.381 1.249,27.016 -4.156,15.637 -6.835,23.809 1.551,20.373 0,0 2.282,11.818 7.001,-0.817 0,0 2.294,8.864 6.066,0"
             id="path3353" />
          <g
             id="g3355">
            <path
               style="fill:#d89595"
               inkscape:connector-curvature="0"
               d="m 420.903,852.73 c -10.311,-1.927 -13.726,14.218 -3.275,16.212 12.626,2.411 13.333,-15.242 3.275,-16.212"
               id="path3357" />
          </g>
          <g
             id="g3359">
            <path
               style="fill:#d89595"
               inkscape:connector-curvature="0"
               d="m 360.217,852.73 c -10.312,-1.927 -13.728,14.218 -3.275,16.212 12.625,2.411 13.332,-15.242 3.275,-16.212"
               id="path3361" />
          </g>
          <path
             style="fill:none;stroke:#000000;stroke-width:1.1559;stroke-linecap:round;stroke-linejoin:round;stroke-miterlimit:10"
             inkscape:connector-curvature="0"
             stroke-miterlimit="10"
             d="m 408.227,830.229 c 0,0 10.335,9.247 17.673,0"
             id="path3363" />
          <path
             style="fill:none;stroke:#000000;stroke-width:1.1559;stroke-linecap:round;stroke-linejoin:round;stroke-miterlimit:10"
             inkscape:connector-curvature="0"
             stroke-miterlimit="10"
             d="m 366.553,830.485 c 0,0 -10.337,9.248 -17.673,0"
             id="path3365" />
          <path
             style="fill:#282525"
             inkscape:connector-curvature="0"
             d="m 391.425,821.995 c 0,0 -5.78,-0.121 -7.286,-0.102 -1.507,0.02 -29.993,-7.186 -54.038,-1.258 l 0.081,6.298 2.769,0.357 c 0,0 2.001,18.776 13.454,20.3 11.451,1.522 18.601,0.74 23.59,-2.081 4.989,-2.822 11.073,-8.415 14.719,-18.11 0,0 3.349,-1.816 6.15,0.311 2.8,2.131 4.678,21.093 29.416,20.183 0,0 12.069,0.733 16.75,-6.318 4.687,-7.05 4.447,-15.61 5.579,-15.726 1.128,-0.109 2.387,-0.031 2.387,-0.031 l -0.083,-6.592 c -0.001,0 -30.212,-4.526 -53.488,2.769 z m -13.44,10.022 c -5.811,14.067 -14.503,13.848 -21.55,14.163 -15.45,0.692 -16.145,-4.907 -16.791,-6.376 -0.647,-1.468 -2.48,-7.153 -0.938,-14.26 1.266,-5.839 19.658,-5.083 19.658,-5.083 26.009,0.248 19.621,11.556 19.621,11.556 z m 57.681,6.705 c -0.606,1.484 -1.159,7.1 -16.619,6.815 -7.055,-0.132 -15.737,0.316 -21.91,-13.596 0,0 -6.677,-11.134 19.32,-12.065 0,0 18.363,-1.238 19.781,4.563 1.724,7.066 0.036,12.798 -0.572,14.283 z"
             id="path3367" />
          <path
             style="fill:#49433b"
             inkscape:connector-curvature="0"
             d="m 432.674,749.116 c -1.507,-0.963 1.029,0.58 0,0 -1.97,-0.88 3.249,-4.52 3.249,-4.52 -2.51,0.457 -4.021,0.944 -4.917,2.962 1.371,-3.372 4.334,-6.357 4.334,-6.357 -3.032,0 -4.905,2.604 -5.779,5.751 0.03,-2.828 0.099,-5.373 0.099,-5.373 -2.061,1.712 -2.058,3.234 -1.693,5.483 -12.277,-6.128 -65.256,-14.916 -87.784,11.498 -22.785,26.713 -18.899,62.493 -18.899,62.493 0,0 54.909,1.082 105.196,-30.192 0,0 3.999,18.691 11.363,30.045 0,0 9.747,14.134 13.369,-6.478 8.403,-47.789 -18.538,-65.312 -18.538,-65.312 z m -1.968,-0.882 c 0,0 0,0 -0.002,0.002 0.022,-0.076 0.042,-0.146 0.068,-0.224 -0.023,0.077 -0.045,0.149 -0.066,0.222 z"
             id="path3369" />
          <path
             style="fill:#ead5d3"
             inkscape:connector-curvature="0"
             d="m 400.301,894.832 c 12.832,-1.154 13.242,-13.86 13.242,-13.86 -12.417,0 -25.058,-6.931 -25.058,-6.931 0,0 -6.033,5.376 -24.133,6.615 0,0 1.604,14.176 9.054,14.176 0,0 5.378,-6.715 10.757,-6.052 5.381,0.662 5.358,3.264 5.358,3.264 0,0 0.848,-4.696 4.572,-3.264 3.724,1.433 6.208,6.052 6.208,6.052 z"
             id="path3371" />
          <path
             style="fill:none;stroke:#000000;stroke-width:0.69679999;stroke-linecap:round;stroke-linejoin:round;stroke-miterlimit:10"
             inkscape:connector-curvature="0"
             stroke-miterlimit="10"
             d="m 382.947,881.924 c 0,0 4.007,7.185 15.314,-0.221"
             id="path3373" />
          <path
             style="fill:#635b4f"
             inkscape:connector-curvature="0"
             d="m 328.7,812.422 c 37.683,3.162 80.313,-21.797 96.637,-31.714 0,0 -49.165,20.829 -55.391,22.308 -6.226,1.478 -45.702,9.033 -41.246,9.406 z"
             id="path3375" />
          <path
             style="fill:#635b4f"
             inkscape:connector-curvature="0"
             d="m 329.189,796.823 c 38.727,3.507 79.824,-24.95 96.147,-34.866 0,0 -51.194,24.305 -57.421,25.783 -6.226,1.478 -43.178,8.681 -38.726,9.083 z"
             id="path3377" />
          <path
             style="fill:#635b4f"
             inkscape:connector-curvature="0"
             d="m 332.809,780.322 c 29.92,-1.501 61.876,-15.08 76.492,-27.371 0,0 -31.415,12.231 -37.344,14.643 -5.929,2.412 -43.612,12.953 -39.148,12.728 z"
             id="path3379" />
          <path
             style="fill:#635b4f"
             inkscape:connector-curvature="0"
             d="m 430.043,813.074 c 0.091,-1.022 -7.304,-3.409 -14.25,-4.738 -6.947,-1.332 -12.797,0.083 -12.888,1.104 -0.233,2.688 3.408,0.908 10.508,1.028 6.98,0.119 16.539,3.627 16.63,2.606 z"
             id="path3381" />
        </g>
        <path
           style="clip-rule:evenodd;fill:#111510;fill-rule:evenodd"
           inkscape:connector-curvature="0"
           d="m 408.853,928.3 c 0,0 39.914,-2.512 51.84,3.33 11.927,5.844 30.885,62.724 32.414,67.615 l -197.848,0 c 1.529,-4.892 18.052,-61.771 29.978,-67.615 11.926,-5.842 51.842,-3.33 51.842,-3.33 l 31.774,0 z"
           id="path3383" />
        <line
           style="fill:none"
           x1="392.84799"
           y1="938.69598"
           x2="392.84799"
           y2="999.245"
           id="line3385" />
        <polygon
           style="clip-rule:evenodd;fill:#f9f6f4;fill-rule:evenodd"
           points="376.843,999.7 362.839,928.376 422.918,928.673 408.915,1000 "
           id="polygon3387" />
        <line
           style="fill:none;stroke:#000000;stroke-width:0.85210001;stroke-miterlimit:10"
           stroke-miterlimit="10"
           x1="392.84799"
           y1="933.77502"
           x2="392.84799"
           y2="999.245"
           id="line3389" />
        <ellipse
           cx="397.06"
           cy="952.91101"
           rx="1.202"
           ry="1.983"
           id="ellipse3391" />
        <ellipse
           cx="397.06"
           cy="967.74799"
           rx="1.202"
           ry="1.982"
           id="ellipse3393" />
        <ellipse
           cx="397.06"
           cy="982.73199"
           rx="1.202"
           ry="1.9809999"
           id="ellipse3395" />
        <path
           style="clip-rule:evenodd;fill:#111510;fill-rule:evenodd"
           inkscape:connector-curvature="0"
           d="m 368.509,945.566 c -4.026,-9.329 -2.374,-18.339 0.486,-27.519 5.878,1.072 11.549,2.274 16.646,5.147 1.529,0.863 2.593,2.553 3.889,3.886 1.778,0.104 3.732,0.244 5.688,0.317 0.392,0.013 0.897,-0.121 1.168,-0.378 3.945,-3.725 8.864,-5.389 13.968,-6.662 2.212,-0.552 4.438,-1.043 6.706,-1.571 2.453,5.903 3.119,11.909 1.999,18.076 -0.501,2.747 -1.306,5.44 -1.893,8.177 -0.266,1.233 -0.919,1.431 -2.052,1.258 -7.108,-1.078 -13.391,-4.009 -19.048,-8.371 -1.653,-1.273 -6.837,-1.35 -8.59,-0.183 -5.8,3.869 -12.216,6.259 -18.967,7.823 z"
           id="path3397" />
        <polyline
           style="fill:none;stroke:#f4efed;stroke-width:0.57700002;stroke-linecap:round;stroke-linejoin:round;stroke-miterlimit:10"
           stroke-miterlimit="10"
           points="    332.441,965.765 332.441,976.311 332.441,999.245   "
           id="polyline3399" />
        <line
           style="fill:none;stroke:#f4efed;stroke-width:0.57700002;stroke-linecap:round;stroke-linejoin:round;stroke-miterlimit:10"
           stroke-miterlimit="10"
           x1="456.41199"
           y1="965.76501"
           x2="456.41199"
           y2="999.245"
           id="line3401" />
        <polyline
           style="fill:none;stroke:#f4efed;stroke-width:0.85769999;stroke-linecap:round;stroke-linejoin:round;stroke-miterlimit:10"
           stroke-miterlimit="10"
           points="    416.47,999.689 431.337,969.73 425.337,963.504 436.193,949.707 425.899,928.376   "
           id="polyline3403" />
        <polyline
           style="fill:none;stroke:#f4efed;stroke-width:0.85769999;stroke-linecap:round;stroke-linejoin:round;stroke-miterlimit:10"
           stroke-miterlimit="10"
           points="    367.333,999.689 352.466,969.73 358.466,963.504 347.608,949.707 357.902,928.376   "
           id="polyline3405" />
      </g>
      <g
         id="g3407">
        <g
           id="g3409">
          <path
             style="fill:#111510"
             inkscape:connector-curvature="0"
             d="m 615.568,770.772 c 0,0 -52.947,-49.437 -88.684,31.975 0,0 -0.462,8.178 -19.6,9.483 -5.637,0.385 7.646,13.254 10.292,10.942 2.618,-2.287 -13.495,15.489 -2.606,40 10.883,24.509 -2.508,23.543 -2.341,35.691 0.15,10.942 9.521,11.294 8.908,18.683 -0.5,6.067 -1.169,8.531 -4.176,15.229 -4.577,10.2 -1.168,23.252 6.853,28.53 8.016,5.279 109.241,38.11 129.2,-0.854 10.704,-20.896 3.372,-29.463 0.221,-34.258 -2.593,-3.937 -8.06,-14.408 -0.221,-29.927 8.1,-16.026 12.247,-39.647 8.907,-53.715 -3.342,-14.065 -11.727,-35.131 -11.025,-42.745 0.761,-8.275 -1.442,-45.999 -35.728,-29.034 z"
             id="path3411" />
          <path
             style="fill:#d1bfbf"
             inkscape:connector-curvature="0"
             d="m 540.045,844.075 c 0,0 23.534,4.814 65.718,-28.281 0,0 4.12,-3.671 7.999,-10.303 0,0 4.811,21.172 25.821,31.148 0,0 9.45,70.862 -51.337,77.247 0,10e-4 -45.859,-3.13 -48.201,-69.811 z"
             id="path3413" />
          <path
             style="fill:none;stroke:#000000;stroke-width:1.30729997;stroke-linecap:round;stroke-linejoin:round;stroke-miterlimit:10"
             inkscape:connector-curvature="0"
             stroke-miterlimit="10"
             d="m 577.98,846.677 c 0,0 -11.633,9.957 -19.886,0"
             id="path3415" />
          <g
             id="g3417">
            <path
               style="fill:#cc8f8f"
               inkscape:connector-curvature="0"
               d="m 563.846,867.637 c -14.8,-2.646 -19.699,19.519 -4.702,22.256 18.119,3.31 19.135,-20.927 4.702,-22.256"
               id="path3419" />
          </g>
          <g
             id="g3421">
            <path
               style="fill:#cc8f8f"
               inkscape:connector-curvature="0"
               d="m 621.73,867.637 c -14.797,-2.646 -19.697,19.519 -4.699,22.256 18.123,3.31 19.137,-20.927 4.699,-22.256"
               id="path3423" />
          </g>
          <line
             style="fill:none;stroke:#000000;stroke-width:0.91890001;stroke-linecap:round;stroke-linejoin:round;stroke-miterlimit:10"
             stroke-miterlimit="10"
             x1="571.703"
             y1="850.98102"
             x2="571.98199"
             y2="852.54199"
             id="line3425" />
          <line
             style="fill:none;stroke:#000000;stroke-width:0.91890001;stroke-linecap:round;stroke-linejoin:round;stroke-miterlimit:10"
             stroke-miterlimit="10"
             x1="567.91498"
             y1="851.75"
             x2="567.88202"
             y2="853.33197"
             id="line3427" />
          <line
             style="fill:none;stroke:#000000;stroke-width:0.91890001;stroke-linecap:round;stroke-linejoin:round;stroke-miterlimit:10"
             stroke-miterlimit="10"
             x1="563.57898"
             y1="851.263"
             x2="563.302"
             y2="852.82202"
             id="line3429" />
          <g
             id="g3431">
            <path
               style="fill:none;stroke:#000000;stroke-width:1.30729997;stroke-linecap:round;stroke-linejoin:round;stroke-miterlimit:10"
               inkscape:connector-curvature="0"
               stroke-miterlimit="10"
               d="m 605.763,847.296 c 0,0 11.633,9.955 19.885,0"
               id="path3433" />
            <line
               style="fill:none;stroke:#000000;stroke-width:0.91890001;stroke-linecap:round;stroke-linejoin:round;stroke-miterlimit:10"
               stroke-miterlimit="10"
               x1="612.039"
               y1="851.59998"
               x2="611.76001"
               y2="853.159"
               id="line3435" />
            <line
               style="fill:none;stroke:#000000;stroke-width:0.91890001;stroke-linecap:round;stroke-linejoin:round;stroke-miterlimit:10"
               stroke-miterlimit="10"
               x1="615.828"
               y1="852.36798"
               x2="615.86102"
               y2="853.95099"
               id="line3437" />
            <line
               style="fill:none;stroke:#000000;stroke-width:0.91890001;stroke-linecap:round;stroke-linejoin:round;stroke-miterlimit:10"
               stroke-miterlimit="10"
               x1="620.16302"
               y1="851.88098"
               x2="620.44397"
               y2="853.44"
               id="line3439" />
          </g>
          <g
             id="g3441">
            <path
               style="fill:#a8434d"
               inkscape:connector-curvature="0"
               d="m 590.594,883.253 c 0,0 1.312,-0.743 -2.626,-1.982 -3.939,-1.238 -10.287,1.982 -10.287,1.982 0,0 11.599,6.937 26.249,0 0,0 -6.348,-3.221 -10.289,-1.982 -3.938,1.239 -2.625,1.982 -2.625,1.982"
               id="path3443" />
            <path
               style="fill:#a8434d"
               inkscape:connector-curvature="0"
               d="m 579.399,884.092 c 0,0 13.036,14.216 22.414,0"
               id="path3445" />
            <path
               style="fill:none;stroke:#ccb6b6;stroke-width:0.30989999;stroke-miterlimit:10"
               inkscape:connector-curvature="0"
               stroke-miterlimit="10"
               d="m 577.681,883.253 c 0,0 14.858,5.218 26.249,0"
               id="path3447" />
          </g>
          <path
             style="opacity:0.9;fill:#1f231e"
             inkscape:connector-curvature="0"
             d="m 627.536,835.464 c 0.067,-0.948 -6.269,-3.245 -12.211,-4.552 -5.939,-1.312 -10.915,-0.057 -10.983,0.891 -0.172,2.497 2.914,0.881 8.974,1.065 5.959,0.183 14.155,3.543 14.22,2.596 z"
             id="path3449" />
          <path
             style="fill:#d1bfbf"
             inkscape:connector-curvature="0"
             d="m 575.975,904.195 -3.659,24.068 c 0,0 16.25,31.113 30.647,0 l -1.794,-24.068 c 0,0 -17.896,-6.324 -25.194,0 z"
             id="path3451" />
          <path
             style="fill:#262623"
             inkscape:connector-curvature="0"
             d="m 509.175,814.829 c 0,0 9.059,9.218 16.627,3.25 0,0 -7.889,2.13 -16.627,-3.25 z"
             id="path3453" />
          <path
             style="fill:#262623"
             inkscape:connector-curvature="0"
             d="m 513.511,813.863 c 0,0 11.976,4.855 16.547,-3.629 0,0 -6.393,5.09 -16.547,3.629 z"
             id="path3455" />
          <path
             style="fill:#262623"
             inkscape:connector-curvature="0"
             d="m 611.898,772.098 c 0,0 -56.707,-32.286 -77.958,28.772 0,0 20.21,-49.39 77.958,-28.772 z"
             id="path3457" />
          <path
             style="fill:#262623"
             inkscape:connector-curvature="0"
             d="m 612.039,776.235 c 0,0 -64.368,-10.538 -76.012,36.819 0,10e-4 20.634,-42.32 76.012,-36.819 z"
             id="path3459" />
          <path
             style="fill:#262623"
             inkscape:connector-curvature="0"
             d="m 554.091,800.87 c 0,0 28.381,-7.596 42.197,-18.651"
             id="path3461" />
          <path
             style="fill:#262623"
             inkscape:connector-curvature="0"
             d="m 533.94,817.379 c 0,0 49.116,-10.143 79.024,-37.446 10e-4,0 -19.698,31.966 -79.024,37.446 z"
             id="path3463" />
          <path
             style="fill:#262623"
             inkscape:connector-curvature="0"
             d="m 530.134,825.858 c 0,0 47.684,-5.954 78.164,-31.765 0,0.001 -18.778,29.225 -78.164,31.765 z"
             id="path3465" />
          <path
             style="fill:#262623"
             inkscape:connector-curvature="0"
             d="m 531.945,836.943 c 0,0 46.035,-8.435 79.517,-33.708 0,0 -19.974,27.652 -79.517,33.708 z"
             id="path3467" />
          <path
             style="fill:#262623"
             inkscape:connector-curvature="0"
             d="m 616.986,798.498 c 0,0 5.116,24.883 24.775,32.661 10e-4,0 -13.178,-9.554 -24.775,-32.661 z"
             id="path3469" />
          <path
             style="fill:#262623"
             inkscape:connector-curvature="0"
             d="m 622.205,790.857 c 0,0 5.116,24.884 24.777,32.661 0,10e-4 -13.177,-9.551 -24.777,-32.661 z"
             id="path3471" />
          <path
             style="fill:#262623"
             inkscape:connector-curvature="0"
             d="m 624.26,778.913 c 0,0 5.113,24.883 24.773,32.661 0,0 -13.177,-9.553 -24.773,-32.661 z"
             id="path3473" />
          <path
             style="fill:#262623"
             inkscape:connector-curvature="0"
             d="m 520.178,890.115 c 0,0 -5.966,13.337 1.707,17.387 0,0 -3.627,-3.868 -1.707,-17.387 z"
             id="path3475" />
          <path
             style="fill:#262623"
             inkscape:connector-curvature="0"
             d="m 526.051,838.603 c 0,0 -5.966,13.337 1.707,17.386 0,-10e-4 -3.623,-3.869 -1.707,-17.386 z"
             id="path3477" />
          <path
             style="fill:#262623"
             inkscape:connector-curvature="0"
             d="m 647.808,838.603 c 0,0 5.97,13.337 -1.703,17.386 -10e-4,-10e-4 3.623,-3.869 1.703,-17.386 z"
             id="path3479" />
          <path
             style="fill:#262623"
             inkscape:connector-curvature="0"
             d="m 648.796,866.307 c 0,0 1.123,14.567 -7.467,15.793 0,0 4.716,-2.42 7.467,-15.793 z"
             id="path3481" />
          <path
             style="fill:#262623"
             inkscape:connector-curvature="0"
             d="m 649.811,884.892 c 0,0 1.123,14.566 -7.466,15.793 0,0 4.716,-2.421 7.466,-15.793 z"
             id="path3483" />
          <path
             style="fill:#262623"
             inkscape:connector-curvature="0"
             d="m 521.242,830.481 c 0,0 -12.809,24.049 0.948,32.563 0,10e-4 -6.246,-7.658 -0.948,-32.563 z"
             id="path3485" />
          <path
             style="fill:#262623"
             inkscape:connector-curvature="0"
             d="m 528.752,864.537 c 0,0 -7.897,14.828 0.584,20.08 0,0 -3.853,-4.723 -0.584,-20.08 z"
             id="path3487" />
          <path
             style="fill:#262623"
             inkscape:connector-curvature="0"
             d="m 528.254,910.882 c 0,0 -4.035,16.31 5.473,19.328 0,0 -4.889,-3.641 -5.473,-19.328 z"
             id="path3489" />
          <path
             style="fill:#262623"
             inkscape:connector-curvature="0"
             d="m 543.018,921.102 c 0,0 -2.99,12.089 4.056,14.324 -10e-4,0 -3.623,-2.697 -4.056,-14.324 z"
             id="path3491" />
          <path
             style="fill:#262623"
             inkscape:connector-curvature="0"
             d="m 535.988,892.786 c 0,0 -2.992,12.09 4.057,14.325 0,0 -3.625,-2.697 -4.057,-14.325 z"
             id="path3493" />
          <path
             style="fill:#262623"
             inkscape:connector-curvature="0"
             d="m 556.047,906.223 c 0,0 -2.991,12.087 4.056,14.322 0,0 -3.624,-2.694 -4.056,-14.322 z"
             id="path3495" />
          <path
             style="fill:#262623"
             inkscape:connector-curvature="0"
             d="m 616.357,912.051 c 0,0 2.989,12.086 -4.058,14.322 10e-4,0 3.625,-2.696 4.058,-14.322 z"
             id="path3497" />
          <path
             style="fill:#262623"
             inkscape:connector-curvature="0"
             d="m 632.47,902.038 c 0,0 4.556,11.588 -2.133,14.734 0,0 3.237,-3.152 2.133,-14.734 z"
             id="path3499" />
          <path
             style="fill:#262623"
             inkscape:connector-curvature="0"
             d="m 654.441,830.481 c 0,0 12.811,24.049 -0.945,32.563 0,10e-4 6.244,-7.658 0.945,-32.563 z"
             id="path3501" />
          <path
             style="fill:#262623"
             inkscape:connector-curvature="0"
             d="m 523.57,932.147 c 0,0 -7.896,14.83 0.584,20.08 0,10e-4 -3.849,-4.723 -0.584,-20.08 z"
             id="path3503" />
          <path
             style="fill:#262623"
             inkscape:connector-curvature="0"
             d="m 649.033,927.57 c 0,0 9.393,11.193 3.123,17.188 0,10e-4 2.425,-4.712 -3.123,-17.188 z"
             id="path3505" />
          <path
             style="fill:#262623"
             inkscape:connector-curvature="0"
             d="m 640.495,914.295 c 0,0 6.019,15.293 -2.812,19.445 10e-4,0 4.269,-4.159 2.812,-19.445 z"
             id="path3507" />
          <path
             style="fill:none;stroke:#000000;stroke-width:0.76719999;stroke-miterlimit:10"
             inkscape:connector-curvature="0"
             stroke-miterlimit="10"
             d="m 589.761,825.858 c 0,0 4.289,7.131 0.846,20.06 -4.04,15.164 -5.913,22.911 -0.484,17.983 0,0 1.795,11.604 5.506,-0.803 0,0 1.804,8.701 4.776,0"
             id="path3509" />
        </g>
        <path
           style="clip-rule:evenodd;fill:#d1bfbf;fill-rule:evenodd"
           inkscape:connector-curvature="0"
           d="m 603.827,928.588 c 0,0 38.334,-2.51 49.783,3.332 11.454,5.845 29.659,62.721 31.131,67.614 l -190.005,0 c 1.468,-4.894 17.336,-61.77 28.788,-67.614 11.453,-5.842 49.787,-3.332 49.787,-3.332 l 30.516,0 z"
           id="path3511" />
        <polygon
           style="clip-rule:evenodd;fill:#ffffff;fill-rule:evenodd"
           points="553.843,967.909 550.084,967.909 549.516,928.264 554.091,928.264 "
           id="polygon3513" />
        <circle
           style="fill:#ffffff"
           cx="570.82501"
           cy="930.96399"
           r="1.904"
           id="circle3515" />
        <circle
           style="fill:#ffffff"
           cx="574.034"
           cy="934.771"
           r="1.904"
           id="circle3517" />
        <circle
           style="fill:#ffffff"
           cx="578.06897"
           cy="937.98102"
           r="1.903"
           id="circle3519" />
        <circle
           style="fill:#ffffff"
           cx="582.78998"
           cy="939.88599"
           r="1.904"
           id="circle3521" />
        <circle
           style="fill:#ffffff"
           cx="587.26001"
           cy="940.75598"
           r="1.904"
           id="circle3523" />
        <circle
           style="fill:#ffffff"
           cx="603.94702"
           cy="930.966"
           r="1.904"
           id="circle3525" />
        <circle
           style="fill:#ffffff"
           cx="600.73798"
           cy="934.77197"
           r="1.904"
           id="circle3527" />
        <circle
           style="fill:#ffffff"
           cx="596.70203"
           cy="937.98401"
           r="1.904"
           id="circle3529" />
        <circle
           style="fill:#ffffff"
           cx="591.98199"
           cy="939.88898"
           r="1.904"
           id="circle3531" />
        <path
           style="fill:#ffffff"
           inkscape:connector-curvature="0"
           d="m 646.826,960.78 c 0,0 -17.841,6.195 -55.141,5.142 l 0,-0.025 c -0.163,0.007 -0.319,0.009 -0.48,0.014 -0.163,-0.005 -0.317,-0.007 -0.482,-0.014 l 0,0.025 c -0.187,0.005 -0.365,0.007 -0.549,0.012 -0.186,-0.005 -0.366,-0.007 -0.552,-0.012 l 0,-0.025 c -0.165,0.007 -0.319,0.009 -0.481,0.014 -0.161,-0.005 -0.319,-0.007 -0.481,-0.014 l 0,0.025 c -37.3,1.054 -55.139,-5.142 -55.139,-5.142 0,0 -14.167,5.513 -8.615,39.22 l 63.754,0 0.202,0 0.761,0 1.101,0 0.762,0 0.201,0 63.754,0 c 5.549,-33.707 -8.615,-39.22 -8.615,-39.22 z"
           id="path3533" />
        <polygon
           style="clip-rule:evenodd;fill:#ffffff;fill-rule:evenodd"
           points="622.305,967.909 626.064,967.909 626.632,928.264 622.057,928.264 "
           id="polygon3535" />
        <path
           style="clip-rule:evenodd;fill:#ffffff;fill-rule:evenodd"
           inkscape:connector-curvature="0"
           d="m 632.476,821.338 c -1.024,0.022 -1.911,0.546 -2.873,0.798 -1.336,0.351 -1.983,0.104 -2.717,-1.012 -1.199,-1.824 -1.039,-3.866 -0.673,-5.81 0.188,-0.993 1.117,-1.857 2.38,-1.894 0.736,-0.021 1.472,-0.005 2.242,-0.005 -0.135,-0.865 -0.725,-1.13 -1.087,-1.568 -1.413,-1.699 -1.324,-3.058 0.368,-4.475 0.767,-0.642 1.628,-1.148 2.547,-1.567 2.463,-1.128 4.253,-0.229 4.935,1.996 0.148,0.479 0.353,0.922 0.745,1.265 0.402,-0.408 0.185,-0.922 0.248,-1.383 0.464,-3.414 2.255,-3.819 4.91,-3.068 1.099,0.311 2.114,0.941 2.953,1.815 1.366,1.428 1.484,2.316 0.386,3.948 -0.359,0.535 -1.077,0.828 -1.106,1.611 0.669,0.68 1.251,-0.047 1.808,-0.172 1.944,-0.438 3.135,0.18 3.665,2.068 0.155,0.558 0.379,1.082 0.422,1.684 0.246,3.533 -0.695,4.693 -4.136,5.006 -0.171,0.254 -0.01,0.441 0.134,0.623 1.747,2.164 1.833,2.762 0.636,4.353 -1.77,2.344 -4.351,3.521 -6.215,2.828 -0.406,-0.151 -0.706,-0.437 -0.898,-0.823 -0.4,-0.795 -1.14,-1.393 -1.403,-2.326 -0.219,0.706 -0.44,1.412 -0.658,2.119 -0.438,1.413 -1.812,2.429 -3.193,2.047 -1.659,-0.457 -3.333,-0.983 -4.562,-2.379 -0.624,-0.711 -0.761,-1.326 -0.485,-2.254 0.37,-1.244 1.259,-2.142 1.806,-3.253 0.089,-0.1 0.272,-0.27 0.259,-0.29 -0.227,-0.302 -0.313,-0.007 -0.438,0.118 z m 6.327,-7.465 c -1.959,0.016 -2.966,1.072 -2.979,3.124 -0.011,1.703 1.401,2.963 3.303,2.945 1.795,-0.017 3.046,-1.357 2.982,-3.198 -0.059,-1.781 -1.331,-2.886 -3.306,-2.871 z m -2.339,-0.582 c -0.212,-0.492 -0.506,-0.925 -1.107,-0.738 -0.404,0.123 -0.761,0.474 -0.65,0.939 0.118,0.514 0.485,0.915 1.081,0.737 0.406,-0.12 0.687,-0.455 0.676,-0.938 z m 6.63,0.341 c -0.067,-0.521 -0.217,-1.02 -0.855,-0.95 -0.335,0.034 -0.553,0.373 -0.524,0.739 0.037,0.464 0.36,0.758 0.783,0.832 0.415,0.074 0.524,-0.288 0.596,-0.621 z m -2.669,7.346 c -0.519,-0.016 -0.8,0.246 -0.8,0.7 10e-4,0.455 0.293,0.73 0.768,0.697 0.341,-0.023 0.594,-0.206 0.635,-0.582 0.048,-0.475 -0.174,-0.743 -0.603,-0.815 z m -6.274,-3.504 c -0.396,0.069 -0.589,0.354 -0.536,0.821 0.044,0.388 0.32,0.547 0.652,0.562 0.469,0.022 0.756,-0.251 0.745,-0.715 -0.014,-0.462 -0.301,-0.706 -0.861,-0.668 z m 9.466,-1.182 c 0.506,-0.024 0.771,-0.346 0.853,-0.737 0.072,-0.346 -0.184,-0.587 -0.557,-0.609 -0.477,-0.028 -0.768,0.228 -0.781,0.688 -0.011,0.31 0.094,0.637 0.485,0.658 z m 0.871,1.764 c -0.023,-0.364 -0.219,-0.576 -0.581,-0.596 -0.473,-0.027 -0.762,0.229 -0.779,0.681 -0.012,0.312 0.112,0.656 0.524,0.641 0.448,-0.017 0.677,-0.343 0.836,-0.726 z m -9.544,-2.474 c -0.016,-0.351 -0.144,-0.604 -0.541,-0.633 -0.476,-0.034 -0.769,0.193 -0.806,0.657 -0.025,0.322 0.084,0.658 0.489,0.674 0.464,0.018 0.685,-0.324 0.858,-0.698 z m 0.103,5.287 c 0.686,0.071 0.969,-0.165 0.996,-0.629 0.021,-0.322 -0.093,-0.657 -0.49,-0.67 -0.457,-0.014 -0.748,0.309 -0.839,0.7 -0.079,0.343 0.167,0.577 0.333,0.599 z m 7.993,-0.517 c -0.112,-0.395 -0.361,-0.729 -0.674,-0.699 -0.434,0.043 -0.741,0.402 -0.661,0.886 0.055,0.337 0.324,0.686 0.649,0.65 0.435,-0.046 0.698,-0.406 0.686,-0.837 z m -5.932,1.418 c 0.027,0.385 0.292,0.612 0.621,0.543 0.396,-0.084 0.72,-0.378 0.717,-0.835 -0.002,-0.412 -0.344,-0.521 -0.666,-0.502 -0.46,0.026 -0.707,0.306 -0.672,0.794 z m 2.492,-9.891 c 0.052,0.727 0.31,0.964 0.643,0.893 0.396,-0.084 0.717,-0.38 0.722,-0.838 0.002,-0.416 -0.344,-0.523 -0.662,-0.507 -0.462,0.026 -0.716,0.303 -0.703,0.452 z m -1.139,0.047 c -0.021,-0.395 -0.344,-0.506 -0.658,-0.501 -0.461,0.01 -0.727,0.291 -0.697,0.772 0.022,0.363 0.244,0.635 0.604,0.571 0.405,-0.071 0.695,-0.362 0.751,-0.842 z"
           id="path3537" />
      </g>
    </g>
  </g>
</svg>
