<?xml version="1.0" encoding="UTF-8" standalone="no"?>
<!-- Created with Inkscape (http://www.inkscape.org/) -->

<svg
   xmlns:dc="http://purl.org/dc/elements/1.1/"
   xmlns:cc="http://creativecommons.org/ns#"
   xmlns:rdf="http://www.w3.org/1999/02/22-rdf-syntax-ns#"
   xmlns:svg="http://www.w3.org/2000/svg"
   xmlns="http://www.w3.org/2000/svg"
   xmlns:sodipodi="http://sodipodi.sourceforge.net/DTD/sodipodi-0.dtd"
   xmlns:inkscape="http://www.inkscape.org/namespaces/inkscape"
   width="133.92204mm"
   height="29.209673mm"
   viewBox="0 0 474.52692 103.49884"
   id="svg6332"
   version="1.1"
   inkscape:version="0.91 r"
   sodipodi:docname="evert-and-roxy-title.svg">
  <defs
     id="defs6334" />
  <sodipodi:namedview
     id="base"
     pagecolor="#ffffff"
     bordercolor="#666666"
     borderopacity="1.0"
     inkscape:pageopacity="0.0"
     inkscape:pageshadow="2"
     inkscape:zoom="0.35"
     inkscape:cx="529.40632"
     inkscape:cy="-245.39344"
     inkscape:document-units="px"
     inkscape:current-layer="layer1"
     showgrid="false"
     fit-margin-top="0"
     fit-margin-left="0"
     fit-margin-right="0"
     fit-margin-bottom="0"
     inkscape:window-width="1280"
     inkscape:window-height="1002"
     inkscape:window-x="-8"
     inkscape:window-y="-8"
     inkscape:window-maximized="1" />
  <metadata
     id="metadata6337">
    <rdf:RDF>
      <cc:Work
         rdf:about="">
        <dc:format>image/svg+xml</dc:format>
        <dc:type
           rdf:resource="http://purl.org/dc/dcmitype/StillImage" />
        <dc:title></dc:title>
      </cc:Work>
    </rdf:RDF>
  </metadata>
  <g
     inkscape:label="Layer 1"
     inkscape:groupmode="layer"
     id="layer1"
     transform="translate(154.40632,-183.46993)">
    <path
       id="path4494-9"
       d="m -1.6762481,242.6428 c -1.556,3.576 -2.935,6.849 -5.071,9.719 -3.237,4.354 -6.9969999,5.745 -11.8059999,4.338 -3.904,-1.143 -6.206,-4.652 -6.492,-9.868 -0.326,-5.919 0.596,-11.674 2.457,-17.267 0.637,-1.92 0.47,-2.596 -1.77,-2.589 -6.867,0.024 -6.777,-0.024 -8.957,6.524 -2.81,8.438 -7.333,15.681 -15.131,20.458 -4.62,2.829 -9.548001,3.862 -14.890001,2.519 -5.426,-1.362 -8.46,-4.856 -9.337,-10.324 -0.093,-0.571 -0.243,-1.131 -0.443,-2.038 -3.648,2.894 -7.528,4.044 -11.937,2.92 -1.137,-0.29 -1.213,0.89 -1.538,1.553 -1.562,3.177 -3.344,6.197 -6.781,7.627 -4.216,1.753 -9.191001,0.242 -11.847001,-4.008 -4.669,-7.467 -6.568,-15.807 -6.511,-24.554 0.021,-2.997 2.077,-4.432 5.491,-4.522 3.019,-0.08 3.688,2.015 4.009,4.335 0.95,6.845 2.405001,13.557 5.325001,19.857 0.81,1.747 1.388,4.284 3.688,4.287 2.396,0.004 2.881,-2.623 3.911,-4.359 0.736,-1.237 0.437,-2.004 -0.718,-2.934 -4.733,-3.808 -6.733,-11.012 -4.816,-16.734 1.229,-3.672 3.987,-5.653 7.275,-5.226 2.738,0.357 4.723,3.048 4.965,6.759 0.272,4.192 -0.468,8.287 -1.541,12.288 -0.593,2.208 0.357,2.618 2.109,2.739 3.884,0.264 8.472,-3.448 9.878,-8.228 1.696,-5.756 4.896,-10.28 10.336,-12.982 6.037,-2.999 12.061001,-1.064 14.175001,4.447 1.003,2.617 0.696,5.062 -0.902,7.381 -2.678,3.881 -6.267001,6.685 -10.401001,8.822 -1.527,0.788 -2.774,1.476 -2.432,3.614 0.346,2.175 1.147,3.789 3.332,4.513 2.824,0.935 5.440001,0.181 7.915001,-1.104 5.684,-2.95 9.108,-7.923 11.615,-13.577 1.257,-2.833 2.118,-5.836 3.23,-8.734 0.481,-1.257 0.054,-1.684 -1.164,-1.91 -1.685,-0.311 -3.272,-0.938 -4.652,-1.999 -3.321,-2.552 -2.815,-7.356 0.994,-9.083 2.792,-1.263 5.684,-1.109 8.432,0.036 2.489,1.039 2.293,3.347 1.69,5.355 -0.794,2.632 -0.041,3.501 2.605,3.178 2.863,-0.353 5.747,-0.521 8.611,-0.862 4.32,-0.518 6.541,1.765 6.079,6.095 -0.645,6.028 -1.609,12.043 -1.421,18.135 0.053,1.711 -0.353,4.144 1.454,4.753 2.134,0.719 3.0969999,-1.681 3.9469999,-3.203 4.216,-7.552 7.196,-15.542 8.06599997,-24.226 0.132,-1.31 -0.301,-1.892 -1.66899997,-1.983 -1.467,-0.1 -2.936,-0.358 -4.37,-0.695 -0.983,-0.23 -1.795,-0.917 -1.778,-2.012 0.017,-1.188 1.027,-1.627 1.995,-1.721 1.691,-0.163 3.405,-0.249 5.097,-0.157 1.49099997,0.083 2.10599997,-0.538 2.425,-1.908 0.722,-3.097 1.48,-6.191 2.364,-9.247 0.764,-2.644 3.618,-3.772 6.9400001,-3.014 2.837,0.649 2.711,2.616 2.401,4.833 -0.359,2.563 -0.491,5.157 -0.838,7.722 -0.161,1.205 0.235,1.565 1.388,1.628 1.548,0.084 3.096,0.294 4.622,0.562 0.797,0.141 1.635,0.49 1.683,1.501 0.046,0.99 -0.719,1.411 -1.49,1.718 -1.46,0.582 -2.993,0.829 -4.56,0.828 -1.583,-0.003 -2.354,0.532 -2.463,2.317 -0.446,7.32 -1.018,14.633 0.093,21.941 0.141,0.938 0.433,1.877 0.806,2.754 1.321,3.119 3.936,3.58 6.284,1.099 1.646,-1.742 2.749,-3.854 3.766,-6.001 1.652,-3.483 2.953,-7.105 4.112,-10.778 0.385,-1.222 0.919,-2.286 2.498,-1.772 1.547,0.501 1.146,1.611 0.796,2.723 -1.577,5.019 -3.247,10.001 -5.824,14.622 -2.644,4.737 -5.996,8.335 -12.083,7.625 -6.7650001,-0.79 -10.4560001,-3.956 -12.33200013,-10.647 -0.31599997,-1.134 -0.53699997,-2.3 -0.89399997,-3.859 z m -85.7030009,-0.852 c 1.013,-4.446 2.039,-8.577 1.571,-12.896 -0.157,-1.451 -0.608,-2.937 -2.345,-3.033 -1.705,-0.094 -2.608,1.155 -3.136,2.654 -1.425,4.049 0.237,10.107 3.91,13.275 z m 26.764,-2.119 c 3.329,-2.104 5.829,-4.167 7.670001,-6.95 0.545,-0.823 0.801,-1.869 -0.064,-2.626 -0.951,-0.83 -1.873001,-0.146 -2.524001,0.526 -2.32,2.402 -3.874,5.257 -5.082,9.05 z m 27.788001,-20.942 c 0.077,-0.518 0.192,-1.064 -0.426,-1.331 -0.576,-0.25 -1.002,0.076 -1.291,0.533 -0.769,1.216 -1.094,2.555 -0.895,3.981 0.086,0.614 0.44,1.16 1.114,1.161 0.649,0 0.716,-0.625 0.82,-1.124 0.232,-1.07 0.453,-2.146 0.678,-3.22 z"
       style="clip-rule:evenodd;fill:#c5a26f;fill-rule:evenodd"
       inkscape:connector-curvature="0" />
    <path
       inkscape:connector-curvature="0"
       style="fill:#c5a26f"
       d="m -140.67925,219.5698 c 0.655,3.368 2.425,5.565 5.621,5.686 0.92,-0.286 1.724,-0.547 2.547,-0.707 2.47,-0.48 4.372,-0.109 4.63,1.218 0.298,1.532 -1.582,2.532 -3.698,2.944 -1.529,0.297 -3.097,0.391 -4.47,0.234 -5.914,2.844 -8.387,10.211 -7.235,16.131 0.992,5.104 4.668,8.944 11.135,7.687 14.815,-2.881 20.584,-17.139 21.696,-19.58 0.507,-1.158 1.309,-2.055 1.896,-2.169 0.353,-0.069 0.628,0.089 0.727,0.6 0.08,0.408 0.081,1.043 -0.113,1.929 -0.716,3.846 -6.924,23.38 -26.325,27.152 -11.64,2.264 -18.263,-4.182 -19.751,-11.837 -1.906,-9.8 3.468,-17.306 10.831,-20.856 -3.924,-1.356 -7.284,-4.199 -8.256,-9.202 -2.541,-13.065 7.411,-32.797 19.404,-35.129 2.704,-0.526 6.254,0.161 7.414,1.101 5.334,1.081 7.598,4.56 8.432,8.848 1.211,6.227 -0.417,14.17 0.301,19.116 0.358,2.473 -2.793,4.462 -5.85,5.057 -2.705,0.526 -5.373,-0.014 -5.79,-2.158 -1.429,-7.35 5.213,-17.751 3.883,-24.59 -0.298,-1.531 -0.909,-2.79 -2.108,-3.934 l -0.587,0.114 c -7.879,1.532 -16.319,22.136 -14.334,32.345 z"
       id="path4498-6" />
    <path
       id="path4500-5"
       d="m 293.77377,244.0388 c -1.278,2.053 -2.561,4.464 -4.172,6.629 -3.551,4.767 -12.205,5.763 -16.442,1.582 -1.803,-1.781 -2.537,-4.642 -3.675,-6.857 -2.226,3.589 -4.195,8.479 -9.976,9.102 -5.362,0.58 -9.743,-1.343 -13.067,-5.649 -2.294,2.031 -4.43,4.057 -6.735,5.867 -0.608,0.477 -1.742,0.275 -2.634,0.385 0.389,-0.837 0.594,-1.865 1.203,-2.476 2.049,-2.03 4.243,-3.91 6.342,-5.818 -1.445,-2.799 -2.886,-5.292 -4.031,-7.919 -1.12,-2.564 -1.935,-5.264 -2.876,-7.891 -0.804,2.116 -1.444,4.395 -2.518,6.447 -1.257,2.415 -2.674,4.815 -4.412,6.895 -2.643,3.156 -6.085,4.883 -10.387,4.549 -0.654,-0.053 -1.631,0.305 -1.993,0.808 -2.962,4.153 -6.508,7.024 -11.999,5.667 -5.961,-1.471 -10.225,-4.954 -11.363,-11.167 -1.446,-7.902 0.49,-15.041 6.06,-20.979 1.671,-1.783 3.677,-3.064 6.348,-1.97 2.768,1.135 3.403,2.756 1.936,5.388 -3.438,6.184 -4.722,12.737 -3.542,19.742 0.024,0.145 0.018,0.301 0.061,0.44 0.687,2.172 0.984,4.823 3.603,5.458 2.756,0.671 4.234,-1.603 5.753,-3.428 0.319,-0.385 0.552,-0.843 0.879,-1.352 -5.053,-3.631 -7.434,-8.526 -7.099,-14.583 0.103,-1.874 0.583,-3.872 1.44,-5.529 2.134,-4.119 7,-4.506 9.91,-0.902 3.128,3.877 3.071,8.378 2.147,12.932 -0.42,2.088 -1.172,4.108 -1.822,6.326 2.468,0.932 4.442,-0.14 6.182,-1.705 3.881,-3.487 5.971,-8.042 7.473,-12.928 0.586,-1.909 1.046,-3.914 1.997,-5.634 0.657,-1.187 1.903,-2.39 3.156,-2.84 4.25,-1.524 5.598,-0.694 7.028,3.643 1.34,4.061 2.726,8.105 4.265,12.667 3.007,-4.629 4.779,-9.1 5.846,-13.875 0.065,-0.289 -0.026,-0.685 0.139,-0.865 0.524,-0.579 1.135,-1.077 1.713,-1.607 0.307,0.654 0.99,1.403 0.855,1.947 -0.734,2.937 -1.477,5.901 -2.592,8.705 -1.006,2.529 -2.558,4.839 -3.729,7.31 -0.313,0.656 -0.456,1.776 -0.105,2.295 1.447,2.128 2.873,4.371 4.759,6.075 2.39,2.167 4.563,1.777 6.37,-0.915 3.669,-5.466 6.221,-11.423 7.316,-17.968 0.338,-2.041 0.803,-4.073 1.398,-6.053 0.577,-1.902 1.935,-3.121 3.941,-3.527 3.177,-0.646 5.176,0.865 5.049,4.075 -0.143,3.558 -0.671,7.104 -0.771,10.661 -0.097,3.551 0.092,7.11 0.23,10.665 0.032,0.796 0.292,1.613 0.59,2.365 0.995,2.522 3.016,2.992 4.729,0.916 1.396,-1.698 2.766,-3.577 3.535,-5.605 2.021,-5.312 3.848,-10.706 5.465,-16.151 1.044,-3.505 3.322,-5.33 6.628,-4.656 1.678,0.342 2.723,1.235 2.699,2.992 -0.029,3.116 -0.213,6.229 -0.235,9.344 -0.044,5.785 -0.012,11.568 -0.012,17.839 1.421,-1.531 2.805,-2.8 3.928,-4.266 3.737,-4.879 6.209,-10.422 8.249,-16.177 0.171,-0.489 0.195,-1.159 0.54,-1.432 0.543,-0.433 1.319,-0.836 1.954,-0.781 0.329,0.028 0.938,1.188 0.797,1.639 -2.677,8.539 -5.668,17.047 -12.554,23.162 -2.429,2.158 -3.251,4.148 -3.392,7.17 -0.314,6.594 -1.664,12.935 -6.004,18.274 -5.036,6.194 -14.234,8.285 -21.384,4.775 -4.665,-2.292 -6.765,-7.891 -5.17,-13.819 1.793,-6.651 6.84,-9.993 12.768,-12.304 2.545,-0.991 5.262,-1.526 7.844,-2.431 0.637,-0.223 1.477,-1.068 1.496,-1.654 0.136,-3.752 0.07,-7.513 0.07,-11.023 z m -0.064,16.231 c -3.47,1.025 -6.712,1.784 -9.802,2.944 -4.251,1.598 -7.257,4.591 -8.302,9.129 -0.666,2.896 -0.715,5.838 2.006,7.891 2.655,2.002 5.624,2.093 8.275,0.246 1.817,-1.267 3.531,-2.979 4.684,-4.862 2.793,-4.573 2.908,-9.805 3.139,-15.348 z m -76.074,-15.871 c 2.356,-5.333 2.787,-11.095 0.836,-14.77 -0.535,-1.002 -1.867,-2.115 -2.881,-2.164 -0.847,-0.042 -2.147,1.227 -2.589,2.211 -2.052,4.595 0.259,11.825 4.634,14.723 z"
       style="clip-rule:evenodd;fill:#c5a26f;fill-rule:evenodd"
       inkscape:connector-curvature="0" />
    <path
       inkscape:connector-curvature="0"
       style="fill:#c5a26f"
       d="m 149.18077,206.1888 c -2.882,0 -6.724,-3.699 -6.724,-7.099 0,-4.299 11.285,-14.196 27.133,-14.196 15.487,0 27.853,11.097 27.853,23.395 0,11.097 -8.403,22.794 -26.292,23.994 5.643,6.898 5.883,17.195 10.205,17.195 4.082,0 10.204,-8.298 13.566,-14.096 0.479,-0.9 1.2,-1.3 1.801,-1.3 0.479,0 0.96,0.3 0.96,1 0,0.4 -0.12,0.8 -0.36,1.3 -3.602,7.598 -10.204,20.095 -19.568,20.095 -9.125,0 -9.245,-9.598 -14.047,-20.895 -2.642,7.798 -4.803,14.396 -5.402,17.696 -0.36,1.799 -2.281,2.699 -4.202,2.699 -2.281,0 -4.803,-1.299 -4.803,-3.999 0,-2.399 2.521,-12.997 4.322,-19.395 -1.08,-0.6 -1.561,-1.5 -1.561,-2.399 0,-1.3 1.08,-2.6 3.361,-3.199 2.762,-8.698 6.363,-18.296 10.445,-29.893 0.72,-2 3.001,-2.899 5.282,-2.899 2.762,0 5.522,1.2 5.522,3.099 0,0.2 0,0.5 -0.12,0.7 -3.001,9.298 -6.963,20.295 -10.324,30.293 0.72,0.3 1.44,0.8 2.041,1.199 12.245,-2.899 19.448,-13.896 19.448,-25.193 0,-4.099 -0.96,-8.398 -3.121,-12.297 -2.881,-1.2 -6.003,-1.7 -9.004,-1.7 -9.484,0 -18.969,5.299 -23.892,14.396 -0.599,1.1 -1.439,1.499 -2.519,1.499 z"
       id="path4504-4" />
    <path
       id="path4506-5"
       d="m 92.902752,241.6888 c 9.333998,15.07 -1.477,31.038 -14.807,34.025 -12.459,2.794 -24.76,-4.859 -28.339,-17.909 -4.242,-15.471 6.133,-29.764 23.167,-31.911 0.583,-0.075 1.169,-0.122 2.257,-0.233 -4.827,-4.797 -7.401,-10.125 -7.219,-16.513 0.428,-15.224 16.493,-27.978 32.013,-25.327 5.601998,0.958 9.455998,4.03 11.609998,8.917 3.431,7.805 0.785,18.661 -5.854,24.388 -1.81,1.558 -3.814,2.839 -6.207998,3.5 -3.556,0.986 -6.837,-0.321 -7.864,-3.132 -1.062,-2.912 0.792,-6.196 4.404,-7.146 6.271998,-1.648 9.895998,-5.623 11.486998,-11.31 1.602,-5.734 -3.012,-10.274 -9.297998,-9.347 -2.445,0.358 -4.684,1.254 -6.681,2.617 -6.786,4.647 -11.635,10.709 -14.375,18.162 -2.051,5.584 -0.455,10.277 4.092,13.448 1.12,0.78 2.975,1.217 2.81,2.869 -0.187,1.84 -2.205,2.057 -3.615,2.408 -12.569,3.125 -18.567,11.732 -21.604,22.798 -0.833,3.027 -0.773,6.179 -0.238,9.229 1.459,8.303 10.324,12.955 19.953,10.616 10.927,-2.656 17.126,-15.507 12.174,-25.089 -1.547,-2.992 -3.881,-4.901 -7.288,-5.706 -0.706,-0.166 -1.418,-0.333 -2.093,-0.586 -1.527,-0.576 -3.74,-0.874 -3.095,-3.049 0.576,-1.939 2.401,-1.686 4.25,-1.418 10.456,1.521 19.603998,-2.012 28.383998,-6.79 1.891,-1.026 3.595,-2.37 5.714,-2.997 2.928,-0.863 5.346,-0.184 6.847,2.406 1.483,2.559 0.93,4.842 -1.47,6.73 -1.524,1.202 -3.302,1.874 -5.176,2.417 -7.706,2.224 -15.579,3.553 -23.937998,3.933 z"
       style="clip-rule:evenodd;fill:#c5a26f;fill-rule:evenodd"
       inkscape:connector-curvature="0" />
  </g>
</svg>
